<svg width="69" height="51" viewBox="0 0 69 51" fill="none" xmlns="http://www.w3.org/2000/svg">
<g filter="url(#filter0_d_967_13517)">
<path d="M63.2266 34.6806V16.5669C63.2266 14.6762 61.136 13.5331 59.5443 14.5536L44.6782 24.0844C43.1697 25.0515 43.2214 27.2729 44.7732 28.1688L59.6393 36.7518C61.2336 37.6723 63.2266 36.5216 63.2266 34.6806Z" fill="url(#paint0_linear_967_13517)"/>
<path d="M63.2266 34.6806V16.5669C63.2266 14.6762 61.136 13.5331 59.5443 14.5536L44.6782 24.0844C43.1697 25.0515 43.2214 27.2729 44.7732 28.1688L59.6393 36.7518C61.2336 37.6723 63.2266 36.5216 63.2266 34.6806Z" stroke="black" stroke-width="0.597883"/>
</g>
<foreignObject x="-4.07385" y="-3.51471" width="62.7454" height="58.0451"><div xmlns="http://www.w3.org/1999/xhtml" style="backdrop-filter:blur(2.16px);clip-path:url(#bgblur_0_967_13517_clip_path);height:100%;width:100%"></div></foreignObject><rect data-figma-bg-blur-radius="4.31213" x="0.638281" y="1.19742" width="53.322" height="48.6208" rx="5.6" fill="#D9D9D9" fill-opacity="0.14" stroke="url(#paint1_linear_967_13517)" stroke-width="0.8"/>
<defs>
<filter id="filter0_d_967_13517" x="38.6287" y="6.89617" width="29.5473" height="32.8042" filterUnits="userSpaceOnUse" color-interpolation-filters="sRGB">
<feFlood flood-opacity="0" result="BackgroundImageFix"/>
<feColorMatrix in="SourceAlpha" type="matrix" values="0 0 0 0 0 0 0 0 0 0 0 0 0 0 0 0 0 0 127 0" result="hardAlpha"/>
<feOffset dy="-2.3253"/>
<feGaussianBlur stdDeviation="2.3253"/>
<feComposite in2="hardAlpha" operator="out"/>
<feColorMatrix type="matrix" values="0 0 0 0 0 0 0 0 0 0 0 0 0 0 0 0 0 0 0.25 0"/>
<feBlend mode="normal" in2="BackgroundImageFix" result="effect1_dropShadow_967_13517"/>
<feBlend mode="normal" in="SourceGraphic" in2="effect1_dropShadow_967_13517" result="shape"/>
</filter>
<clipPath id="bgblur_0_967_13517_clip_path" transform="translate(4.07385 3.51471)"><rect x="0.638281" y="1.19742" width="53.322" height="48.6208" rx="5.6"/>
</clipPath><linearGradient id="paint0_linear_967_13517" x1="71.7305" y1="25.5079" x2="41.3711" y2="23.6187" gradientUnits="userSpaceOnUse">
<stop stop-color="#FEC31B"/>
<stop offset="1" stop-color="#FFE396"/>
</linearGradient>
<linearGradient id="paint1_linear_967_13517" x1="27.2993" y1="0.797421" x2="27.2993" y2="50.2182" gradientUnits="userSpaceOnUse">
<stop stop-color="#FEC31B"/>
<stop offset="1" stop-color="#FFF3D6"/>
</linearGradient>
</defs>
</svg>
