<svg width="19" height="19" viewBox="0 0 19 19" fill="none" xmlns="http://www.w3.org/2000/svg">
<path d="M9.4495 4.61436C12.0032 4.61436 14.111 6.72218 14.111 9.27588C14.111 11.8701 12.0032 13.9374 9.4495 13.9374C6.85526 13.9374 4.78797 11.8701 4.78797 9.27588C4.78797 6.72218 6.85526 4.61436 9.4495 4.61436ZM9.4495 12.316C11.1114 12.316 12.4491 10.9783 12.4491 9.27588C12.4491 7.61395 11.1114 6.27629 9.4495 6.27629C7.74703 6.27629 6.40937 7.61395 6.40937 9.27588C6.40937 10.9783 7.78756 12.316 9.4495 12.316ZM15.3676 4.45222C15.3676 5.06024 14.8812 5.54666 14.2732 5.54666C13.6651 5.54666 13.1787 5.06024 13.1787 4.45222C13.1787 3.84419 13.6651 3.35777 14.2732 3.35777C14.8812 3.35777 15.3676 3.84419 15.3676 4.45222ZM18.4483 5.54666C18.5293 7.04646 18.5293 11.5458 18.4483 13.0456C18.3672 14.5049 18.0429 15.7615 16.989 16.8559C15.9351 17.9098 14.638 18.2341 13.1787 18.3152C11.6789 18.3962 7.17954 18.3962 5.67974 18.3152C4.22048 18.2341 2.9639 17.9098 1.86946 16.8559C0.815547 15.7615 0.491267 14.5049 0.410197 13.0456C0.329127 11.5458 0.329127 7.04646 0.410197 5.54666C0.491267 4.0874 0.815547 2.79028 1.86946 1.73637C2.9639 0.682465 4.22048 0.358185 5.67974 0.277115C7.17954 0.196045 11.6789 0.196045 13.1787 0.277115C14.638 0.358185 15.9351 0.682465 16.989 1.73637C18.0429 2.79028 18.3672 4.0874 18.4483 5.54666ZM16.5026 14.6265C16.989 13.451 16.8674 10.6135 16.8674 9.27588C16.8674 7.97876 16.989 5.14131 16.5026 3.92526C16.1783 3.1551 15.5703 2.50654 14.8001 2.22279C13.5841 1.73637 10.7466 1.85798 9.4495 1.85798C8.11184 1.85798 5.27439 1.73637 4.09888 2.22279C3.28818 2.54707 2.68016 3.1551 2.35588 3.92526C1.86946 5.14131 1.99106 7.97876 1.99106 9.27588C1.99106 10.6135 1.86946 13.451 2.35588 14.6265C2.68016 15.4372 3.28818 16.0452 4.09888 16.3695C5.27439 16.8559 8.11184 16.7343 9.4495 16.7343C10.7466 16.7343 13.5841 16.8559 14.8001 16.3695C15.5703 16.0452 16.2188 15.4372 16.5026 14.6265Z" fill="#060606" fill-opacity="0.93"/>
</svg>
