<svg width="358" height="261" viewBox="0 0 358 261" fill="none" xmlns="http://www.w3.org/2000/svg">
<path d="M42.8538 91.1638L35.7237 106.214C33.7337 108.554 30.5438 108.014 28.9438 105.594L21.2238 91.2438C20.0938 90.9338 18.8938 91.2438 17.7538 91.1138C8.69375 90.1938 1.37375 82.8238 0.59375 73.7338V18.3138C1.38375 9.16383 8.83376 1.71383 17.9838 0.923828H95.4838C104.564 1.70383 111.954 9.03383 112.864 18.0838V73.7338C112.094 82.8138 104.764 90.1938 95.7138 91.1138L42.8637 91.1538L42.8538 91.1638ZM69.1637 40.0038C70.0338 34.1738 61.7338 31.6838 59.0338 36.7038C58.4238 37.8338 57.5037 40.8438 59.4938 40.9838C61.6738 41.1238 60.5938 39.1038 61.4038 37.8738C62.2138 36.6438 64.0938 36.2138 65.3538 37.0438C65.4437 37.1038 66.4538 38.1138 66.4838 38.1838C67.1038 39.5738 66.3737 41.1438 69.1637 40.0038ZM54.7738 40.2438C55.6437 34.4138 47.3438 31.9238 44.6438 36.9438C44.0338 38.0738 43.1138 41.0838 45.1038 41.2238C47.2838 41.3638 46.2038 39.3438 47.0138 38.1138C47.8238 36.8838 49.7038 36.4538 50.9638 37.2838C51.0538 37.3438 52.0638 38.3538 52.0938 38.4238C52.7138 39.8138 51.9837 41.3838 54.7738 40.2438ZM79.6738 35.5538C76.8738 35.6938 77.3838 39.5438 77.0438 41.5338C73.9638 59.9038 50.7337 64.8338 40.6937 49.7138C37.9837 45.6238 38.6538 43.6138 37.4137 39.5638C36.0938 35.2738 31.8338 37.1338 32.2838 42.0538C33.1038 51.0438 41.0838 59.7038 49.4038 62.5938C65.1238 68.0538 81.5038 56.8638 82.6038 40.3738C82.7238 38.5438 82.1438 35.4338 79.6738 35.5538Z" fill="black"/>
<path d="M111.854 170.824C130.704 169.154 144.604 184.194 140.814 202.904C136.504 224.224 108.674 230.634 94.7443 214.414C81.2443 198.694 90.7443 172.704 111.854 170.834V170.824ZM112.804 184.974C101.904 186.274 101.194 205.114 110.704 208.524C117.834 211.084 125.024 207.014 125.784 199.384C126.674 190.434 122.474 183.814 112.804 184.974Z" fill="black"/>
<path d="M17.6247 132.614H33.2147V114.264C33.2147 113.964 33.9647 113.694 34.2847 113.654C38.1847 113.124 43.2347 114.084 47.2647 113.654C48.0647 113.684 48.6747 114.394 48.5847 115.214L48.5147 164.344L47.2547 165.244C43.2247 164.814 38.1747 165.764 34.2747 165.244C33.9547 165.204 33.2047 164.934 33.2047 164.634V145.084H17.6147V164.394C17.6147 164.544 16.6547 165.394 16.3047 165.244C12.2547 164.824 7.25468 165.754 3.32468 165.244C2.98468 165.204 2.70469 165.184 2.47469 164.894L2.30469 114.314C2.48469 113.794 2.83468 113.724 3.32468 113.654C7.23468 113.134 12.2647 114.074 16.3047 113.654C16.6547 113.504 17.6147 114.364 17.6147 114.504V132.614H17.6247Z" fill="black"/>
<path d="M153.093 15.3942C153.373 15.6942 153.373 16.2442 153.403 16.6442C153.903 22.4242 153.323 29.4242 153.383 35.3742C153.513 47.9642 153.793 60.6442 153.643 73.2742C153.253 76.2342 147.823 74.3042 146.113 73.5842C136.513 69.5842 127.083 63.4442 117.483 59.2742C116.293 58.4942 115.853 57.9142 115.723 56.4742C115.213 51.0142 115.483 42.4042 115.723 36.7842C115.763 35.7842 115.843 33.3042 116.023 32.5242C116.163 31.9042 117.043 31.0742 117.573 30.7142L146.443 15.9242C147.953 15.3142 151.853 14.0542 153.093 15.3842V15.3942Z" fill="black"/>
<path d="M89.3145 113.703L107.535 164.343C107.465 164.563 107.385 164.843 107.225 165.003C106.575 165.643 93.6845 165.023 91.7745 165.213L88.9545 157.113L72.2245 157.063C71.7245 158.183 70.0445 164.933 69.2845 165.193L54.3245 165.113L53.8945 164.333L72.1945 113.893L89.3245 113.693L89.3145 113.703ZM76.3945 145.093H85.0345L80.5945 131.903L76.3945 145.093Z" fill="black"/>
<path d="M293.735 129.744C294.775 124.694 285.965 123.253 286.795 128.653C287.005 130.013 288.665 131.044 289.805 131.634C297.145 135.484 309.765 136.573 310.765 147.373C312.915 170.773 274.545 171.293 270.775 152.093C270.645 151.413 270.025 148.203 271.065 148.203H286.535C286.515 151.723 288.325 153.694 291.935 153.244C294.095 152.974 295.185 151.303 294.525 149.203C293.755 146.723 286.445 144.993 284.075 144.063C278.085 141.733 272.045 139.023 270.765 131.953C266.555 108.653 306.265 106.264 309.935 126.364C310.045 126.964 310.575 129.733 309.685 129.733H293.735V129.744Z" fill="black"/>
<path d="M175.474 148.204V164.394C175.474 164.544 174.514 165.394 174.164 165.244C170.124 164.824 165.094 165.764 161.184 165.244C160.694 165.174 160.344 165.104 160.164 164.584L160.334 114.004L161.184 113.654C172.774 114.764 191.114 109.744 198.504 121.454C203.104 128.744 201.574 139.624 194.354 144.664C188.654 148.644 182.144 148.314 175.464 148.204H175.474ZM175.474 135.734H182.074C182.814 135.734 184.544 134.484 184.934 133.794C185.894 132.124 185.724 128.654 184.234 127.334C183.684 126.844 181.554 126.134 180.874 126.134H175.474V135.724V135.734Z" fill="black"/>
<path d="M128.212 148.204V164.394C128.212 164.544 127.252 165.394 126.902 165.244C122.862 164.824 117.832 165.764 113.922 165.244C113.432 165.174 113.082 165.104 112.902 164.584L113.072 114.004L113.922 113.654C125.512 114.764 143.852 109.744 151.242 121.454C155.842 128.744 154.312 139.624 147.092 144.664C141.392 148.644 134.882 148.314 128.202 148.204H128.212ZM128.212 135.734H134.812C135.552 135.734 137.282 134.484 137.672 133.794C138.632 132.124 138.462 128.654 136.972 127.334C136.422 126.844 134.292 126.134 133.612 126.134H128.212V135.724V135.734Z" fill="black"/>
<path d="M17.6225 206.014V222.204C17.6225 222.354 16.6625 223.204 16.3125 223.054C12.2725 222.634 7.2425 223.574 3.3325 223.054C2.8425 222.984 2.4925 222.914 2.3125 222.394L2.48251 171.814L3.3325 171.464C14.9225 172.574 33.2625 167.554 40.6525 179.264C45.2525 186.554 43.7225 197.434 36.5025 202.474C30.8025 206.454 24.2925 206.124 17.6125 206.014H17.6225ZM17.6225 193.534H24.2225C24.9625 193.534 26.6925 192.284 27.0825 191.594C28.0425 189.924 27.8725 186.454 26.3825 185.134C25.8325 184.644 23.7025 183.934 23.0225 183.934H17.6225V193.524V193.534Z" fill="black"/>
<path d="M163.712 206.014V222.204C163.712 222.354 162.752 223.204 162.402 223.054C158.362 222.634 153.332 223.574 149.422 223.054C148.932 222.984 148.582 222.914 148.402 222.394L148.572 171.814L149.422 171.464C161.012 172.574 179.352 167.554 186.742 179.264C191.342 186.554 189.812 197.434 182.592 202.474C176.892 206.454 170.382 206.124 163.702 206.014H163.712ZM163.712 193.534H170.312C171.052 193.534 172.782 192.284 173.172 191.594C174.132 189.924 173.962 186.454 172.472 185.134C171.922 184.644 169.792 183.934 169.112 183.934H163.712V193.524V193.534Z" fill="black"/>
<path d="M246.474 126.144V133.104H261.704C261.704 133.104 262.304 133.664 262.304 133.704V144.494L261.944 144.854H246.474V152.764H263.864C264.164 152.764 264.434 153.514 264.474 153.834C264.754 155.884 264.684 161.794 264.474 163.934C264.414 164.504 264.464 164.964 263.814 165.194L232.184 165.254L231.334 164.904V114.014L263.814 113.724C264.464 113.954 264.424 114.414 264.474 114.984C264.684 117.124 264.744 123.034 264.474 125.084C264.434 125.404 264.164 126.154 263.864 126.154H246.474V126.144Z" fill="black"/>
<path d="M247.913 183.943V190.903H263.143C263.143 190.903 263.743 191.463 263.743 191.503V202.293L263.383 202.653H247.913V210.563H265.303C265.603 210.563 265.873 211.313 265.913 211.633C266.193 213.683 266.123 219.593 265.913 221.733C265.853 222.303 265.903 222.763 265.253 222.993L233.623 223.053L232.773 222.703V171.813L265.253 171.523C265.903 171.753 265.863 172.213 265.913 172.783C266.123 174.923 266.183 180.833 265.913 182.883C265.873 183.203 265.603 183.953 265.303 183.953H247.913V183.943Z" fill="black"/>
<path d="M64.8822 183.943V190.903H80.1122C80.1122 190.903 80.7122 191.463 80.7122 191.503V202.293L80.3522 202.653H64.8822V210.563H82.2722C82.5722 210.563 82.8422 211.313 82.8822 211.633C83.1622 213.683 83.0922 219.593 82.8822 221.733C82.8222 222.303 82.8722 222.763 82.2222 222.993L50.5922 223.053L49.7422 222.703V171.813L82.2222 171.523C82.8722 171.753 82.8322 172.213 82.8822 172.783C83.0922 174.923 83.1522 180.833 82.8822 182.883C82.8422 183.203 82.5722 183.953 82.2722 183.953H64.8822V183.943Z" fill="black"/>
<path d="M343.875 126.144V164.634C343.875 165.064 342.925 165.214 342.575 165.244C339.915 165.514 332.385 165.584 329.835 165.244C329.515 165.204 328.765 164.934 328.765 164.634V126.144H316.175C315.875 126.144 315.375 125.224 315.325 124.834C315.085 123.044 315.085 116.774 315.325 114.974C315.435 114.114 315.985 113.604 316.885 113.654L356.675 113.714C357.325 113.944 357.285 114.404 357.335 114.974C357.545 117.114 357.605 123.024 357.335 125.074C357.295 125.394 357.025 126.144 356.725 126.144H343.895H343.875Z" fill="black"/>
<path d="M210.972 211.043H225.962C226.392 211.413 226.502 211.813 226.562 212.353C226.782 214.233 226.812 219.873 226.562 221.723C226.482 222.343 226.232 222.703 225.662 222.983L196.082 222.913L195.652 222.383V172.113C195.832 171.593 196.182 171.523 196.672 171.453C200.582 170.933 205.612 171.873 209.652 171.453C210.002 171.303 210.962 172.163 210.962 172.303V211.033L210.972 211.043Z" fill="black"/>
<path d="M207.784 113.724L221.904 113.894L222.434 114.564L222.504 163.934L221.594 165.184L207.614 165.114L207.184 164.584L207.254 114.154L207.784 113.724Z" fill="black"/>
<path d="M200.892 236.233L208.692 252.063L208.332 236.233H213.612V259.733H207.972L199.822 243.663L200.182 259.733H194.902V236.233H200.892Z" fill="black"/>
<path d="M43.532 259.734H37.052L33.102 251.814L30.342 251.574V259.724H24.582V236.224H35.492C36.322 236.224 38.772 237.184 39.532 237.704C43.062 240.134 43.332 246.084 40.412 249.054C40.002 249.464 38.492 250.234 38.522 250.694L43.532 259.734ZM30.342 247.024H33.822C34.122 247.024 35.702 246.334 35.982 246.074C36.832 245.274 37.062 243.344 36.632 242.294C36.452 241.854 35.122 240.794 34.772 240.794H30.332V247.034L30.342 247.024Z" fill="black"/>
<path d="M54.7549 235.814C72.5849 233.544 71.0449 264.214 53.6149 259.854C42.8949 257.174 43.2249 237.284 54.7549 235.814ZM55.9449 240.604C49.7549 241.594 50.3349 255.784 56.8349 255.424C63.3349 255.064 63.1749 239.444 55.9449 240.604Z" fill="black"/>
<path d="M178.054 235.814C195.884 233.544 194.334 264.214 176.914 259.854C166.194 257.174 166.524 237.284 178.054 235.814ZM179.244 240.604C173.054 241.594 173.634 255.784 180.134 255.424C186.634 255.064 186.474 239.444 179.244 240.604Z" fill="black"/>
<path d="M71.6035 259.733V236.233H80.8435C81.4835 236.233 84.3635 237.193 85.0535 237.543C92.2335 241.183 92.0935 254.673 85.0135 258.393C84.2035 258.823 81.6635 259.743 80.8435 259.743H71.6035V259.733ZM77.3535 255.173C82.0235 255.563 84.4135 252.823 84.5635 248.353C84.7235 243.453 82.5635 240.363 77.3535 240.783V255.173Z" fill="black"/>
<path d="M100.143 236.233V250.983C100.143 251.753 100.883 253.873 101.453 254.473C102.683 255.753 105.453 255.673 106.723 254.443C107.323 253.863 108.063 251.763 108.063 250.983V236.233H113.343V251.943C113.343 252.623 112.463 255.293 112.113 255.993C109.423 261.383 100.193 261.693 96.6628 257.103C95.8428 256.043 94.6328 252.743 94.6328 251.463V236.233H100.153H100.143Z" fill="black"/>
<path d="M8.75219 252.054V259.724H2.99219V236.224H13.6622C14.1922 236.224 16.3522 236.974 16.9522 237.254C22.1722 239.724 21.8722 247.974 17.0722 250.664C15.9822 251.274 13.4322 252.054 12.2222 252.054H8.74219H8.75219ZM12.9422 240.784C11.8022 240.544 9.98219 240.954 8.74219 240.784V247.504C11.3822 247.604 14.9722 247.704 15.2222 244.264C15.3322 242.734 14.5322 241.124 12.9322 240.794L12.9422 240.784Z" fill="black"/>
<path d="M231.813 242.194H231.303C229.743 240.314 222.563 239.594 224.343 243.374C224.823 244.384 230.783 246.264 232.253 247.224C236.453 249.984 236.043 256.144 231.923 258.744C227.573 261.484 220.993 260.384 217.453 256.744L220.483 253.294C222.483 254.674 226.263 256.284 228.573 254.914C229.743 254.214 229.693 252.834 228.703 251.964C225.773 249.364 219.343 249.824 218.463 244.214C217.093 235.484 229.553 233.204 234.463 238.754L231.803 242.204L231.813 242.194Z" fill="black"/>
<path d="M127.205 235.814C130.375 235.434 133.725 236.334 135.875 238.774L132.895 242.214C129.365 239.034 124.995 240.664 123.785 245.104C121.915 251.954 126.565 258.814 133.345 253.514L136.115 256.544C136.385 257.574 132.855 259.464 131.955 259.744C115.715 264.924 112.205 237.624 127.215 235.814H127.205Z" fill="black"/>
<path d="M155.564 236.233V240.663L155.204 241.023H149.084V259.733H143.564V241.023H137.444L137.094 240.663V236.233H155.564Z" fill="black"/>
<path d="M164.912 259.733H159.152V236.233H164.552L164.912 236.593V259.733Z" fill="black"/>
</svg>
